Coordinates
version=1
nRows=17
nColumns=24
inDegrees=yes

Units are S.I. units (second, meters, Newtons, ...)
Angles are in degrees.

endheader
time	pelvis_tilt	pelvis_list	pelvis_rotation	pelvis_tx	pelvis_ty	pelvis_tz	hip_flexion_r	hip_adduction_r	hip_rotation_r	knee_angle_r	ankle_angle_r	subtalar_angle_r	mtp_angle_r	hip_flexion_l	hip_adduction_l	hip_rotation_l	knee_angle_l	ankle_angle_l	subtalar_angle_l	mtp_angle_l	lumbar_extension	lumbar_bending	lumbar_rotation
      3.31500000	     -7.58634882	    -11.09122178	     -4.85513687	     -1.40473057	     -0.03080418	      0.49400581	      0.84628969	     18.22210172	     19.95021635	    -13.21014460	      6.70046615	     -1.76032380	     -4.73243816	     39.32901118	    -12.27542822	     -0.16277722	    -57.82526849	     -9.22059118	     10.94155458	     26.88143589	      6.89483761	     12.25700043	     10.64082651
      3.32000000	     -7.62127301	    -10.88019849	     -5.28838828	     -1.39769004	     -0.03096983	      0.49415771	      0.23008782	     17.92127292	     20.25564652	    -13.02770698	      6.79868106	     -1.59255233	     -4.59422078	     39.67665409	    -12.28977649	     -0.54399030	    -56.27482423	     -8.81988101	     11.56129169	     26.75562781	      6.73807935	     12.12296207	     11.08572458
      3.32500000	     -7.66568405	    -10.67596587	     -5.69095243	     -1.39062857	     -0.03121408	      0.49427636	     -0.35864599	     17.62368915	     20.52278316	    -12.86007431	      6.90493624	     -1.42725849	     -4.45194129	     40.00299732	    -12.30317797	     -0.90589629	    -54.65441656	     -8.40711597	     12.30313929	     26.63618045	      6.60205910	     11.98785839	     11.49253746
      3.33000000	     -7.72497804	    -10.48370307	     -6.06598959	     -1.38358859	     -0.03153711	      0.49433850	     -0.90495602	     17.33590134	     20.73872862	    -12.72057069	      7.00596711	     -1.25582201	     -4.30973989	     40.31437147	    -12.31326873	     -1.23382397	    -52.96337359	     -7.98254077	     13.14666454	     26.52702562	      6.48337795	     11.86331518	     11.85600939
      3.33500000	     -7.78687496	    -10.31021620	     -6.41935231	     -1.37653382	     -0.03193235	      0.49434061	     -1.42690444	     17.06408433	     20.89736617	    -12.60995565	      7.10672862	     -1.07135241	     -4.15544697	     40.59053813	    -12.33357460	     -1.54883053	    -51.20618238	     -7.50423612	     14.08957101	     26.41021755	      6.37608388	     11.76185375	     12.21464891
      3.34000000	     -7.87862772	    -10.14081450	     -6.74730226	     -1.36946371	     -0.03240518	      0.49431099	     -1.89989191	     16.79594606	     21.00662123	    -12.51404401	      7.20702840	     -0.86639196	     -3.99564240	     40.86822719	    -12.34490284	     -1.83301475	    -49.38997425	     -7.04921407	     15.12809608	     26.28098462	      6.30807686	     11.66138356	     12.53065108
      3.34500000	     -8.00278455	     -9.97793028	     -7.05741350	     -1.36237966	     -0.03295235	      0.49423789	     -2.32211636	     16.53388011	     21.09421469	    -12.43812109	      7.31343429	     -0.63020164	     -3.83507476	     41.14839846	    -12.35622260	     -2.09857002	    -47.51581585	     -6.63202591	     16.24800111	     26.17383179	      6.28175326	     11.57248361	     12.79351563
      3.35000000	     -8.13819061	     -9.82300104	     -7.37120281	     -1.35524320	     -0.03355901	      0.49417716	     -2.71454807	     16.28202266	     21.11388440	    -12.39428707	      7.41870865	     -0.35631059	     -3.65262291	     41.38655884	    -12.37192694	     -2.33517244	    -45.58470752	     -6.14086167	     17.41761614	     26.02288696	      6.27373993	     11.49322998	     13.09296451
      3.35500000	     -8.30778595	     -9.66504766	     -7.67549063	     -1.34805443	     -0.03421710	      0.49412683	     -3.06265290	     16.02814600	     21.11820214	    -12.35945888	      7.52310759	     -0.05171441	     -3.46613726	     41.62452992	    -12.38606173	     -2.55792081	    -43.60716731	     -5.71217010	     18.62629036	     25.85162933	      6.32105612	     11.40521102	     13.32512182
      3.36000000	     -8.50425280	     -9.49627540	     -7.97010199	     -1.34078726	     -0.03492419	      0.49403613	     -3.36492917	     15.76302768	     21.09199824	    -12.35308515	      7.61689152	      0.27902163	     -3.27538932	     41.84318071	    -12.37824234	     -2.75726071	    -41.57962332	     -5.28877383	     19.82628145	     25.65543127	      6.40974456	     11.31965180	     13.55070423
      3.36500000	     -8.68991174	     -9.34446449	     -8.30469641	     -1.33349268	     -0.03564805	      0.49394504	     -3.65441921	     15.50691254	     21.00890901	    -12.40000852	      7.73133691	      0.73859278	     -3.00244044	     41.99293338	    -12.39683706	     -2.91275453	    -39.53235968	     -4.75495565	     21.03535839	     25.32628442	      6.48021277	     11.26769027	     13.89461752
      3.37000000	     -8.90722890	     -9.16586015	     -8.62325850	     -1.32607468	     -0.03639682	      0.49386313	     -3.90439885	     15.22148447	     20.90536876	    -12.44817407	      7.83014335	      1.23159224	     -2.71021387	     42.13421507	    -12.38278451	     -3.04893702	    -37.45507587	     -4.29519553	     22.16968974	     24.92447578	      6.61572155	     11.18587681	     14.16240321
      3.37500000	     -9.12551576	     -8.97167216	     -8.94245247	     -1.31862513	     -0.03714524	      0.49376976	     -4.12449152	     14.91433656	     20.75540784	    -12.53659184	      7.93653309	      1.81993910	     -2.33431677	     42.23752241	    -12.34102730	     -3.11223110	    -35.37141197	     -3.87659917	     23.20404312	     24.36781368	      6.75708475	     11.08777785	     14.43622043
      3.38000000	     -9.36404404	     -8.76596712	     -9.27692677	     -1.31097922	     -0.03792258	      0.49368725	     -4.33130676	     14.59270216	     20.62887472	    -12.62550694	      7.99389731	      2.36376481	     -2.01424213	     42.30139510	    -12.29510579	     -3.15708332	    -33.25740186	     -3.47422764	     24.05387584	     23.92683003	      6.96082777	     10.99256628	     14.70211654
      3.38500000	     -9.58310235	     -8.54140830	     -9.61152983	     -1.30330581	     -0.03866920	      0.49359145	     -4.52781807	     14.24038373	     20.45948189	    -12.75513692	      8.06336615	      3.02598152	     -1.61421993	     42.30848190	    -12.21637727	     -3.10734647	    -31.15536145	     -3.14540984	     24.72444158	     23.34293812	      7.14912222	     10.87738659	     14.98814251
      3.39000000	     -9.79606096	     -8.31119475	     -9.93490374	     -1.29554342	     -0.03941516	      0.49346120	     -4.71375894	     13.87468667	     20.26763016	    -12.90829967	      8.10298614	      3.71883533	     -1.18222205	     42.27436144	    -12.10899549	     -2.93764962	    -29.07156114	     -2.88583511	     25.15646645	     22.71142120	      7.34555361	     10.75620119	     15.25887213
      3.39500000	     -9.99232282	     -8.07705394	    -10.24807554	     -1.28770902	     -0.04014274	      0.49332086	     -4.90409525	     13.49866620	     20.08154732	    -13.08057310	      8.09932107	      4.40628504	     -0.75421816	     42.18949616	    -11.98230216	     -2.65177484	    -27.01032633	     -2.72252149	     25.33694306	     22.12590532	      7.54163046	     10.62895079	     15.52080852
